<svg xmlns="http://www.w3.org/2000/svg" width="79" height="79" viewBox="0 0 79 79" fill="none">
  <g clip-path="url(#clip0_1_342)">
    <path d="M39.5 6.58337C42.4493 6.58337 45.3065 6.97179 48.0254 7.69925L41.0273 14.694C40.4964 15.2271 40.0281 15.819 39.6316 16.4584H39.5C34.9428 16.4584 30.4879 17.8097 26.6987 20.3416C22.9095 22.8734 19.9562 26.4721 18.2123 30.6824C16.4683 34.8927 16.012 39.5256 16.9011 43.9952C17.7901 48.4649 19.9846 52.5705 23.2071 55.793C26.4295 59.0154 30.5351 61.2099 35.0048 62.099C39.4744 62.988 44.1073 62.5317 48.3176 60.7878C52.528 59.0438 56.1266 56.0905 58.6584 52.3013C61.1903 48.5121 62.5416 44.0573 62.5416 39.5V39.3684C63.1736 38.9734 63.7661 38.5092 64.3027 37.9694L71.3008 30.9746C72.0282 33.6935 72.4166 36.5507 72.4166 39.5C72.4166 57.6799 57.6799 72.4167 39.5 72.4167C21.3201 72.4167 6.58331 57.6799 6.58331 39.5C6.58331 21.3202 21.3201 6.58337 39.5 6.58337ZM38.1372 23.0977C38.1372 25.8989 37.999 28.7396 38.1504 31.5375L36.3729 33.315C35.7615 33.9264 35.2764 34.6523 34.9455 35.4512C34.6146 36.2501 34.4443 37.1063 34.4443 37.9711C34.4443 38.8358 34.6146 39.692 34.9455 40.4909C35.2764 41.2898 35.7615 42.0157 36.3729 42.6271C36.9843 43.2386 37.7102 43.7236 38.5091 44.0545C39.308 44.3854 40.1642 44.5557 41.029 44.5557C41.8937 44.5557 42.7499 44.3854 43.5488 44.0545C44.3477 43.7236 45.0736 43.2386 45.685 42.6271L47.4625 40.8496C50.2604 41.001 53.0979 40.8628 55.9024 40.8628C55.6423 43.991 54.4932 46.9796 52.5904 49.4761C50.6876 51.9727 48.1105 53.873 45.1632 54.953C42.2158 56.033 39.0211 56.2476 35.9558 55.5715C32.8904 54.8954 30.0824 53.3568 27.8628 51.1372C25.6432 48.9176 24.1046 46.1096 23.4285 43.0443C22.7525 39.9789 22.9671 36.7842 24.047 33.8368C25.127 30.8895 27.0274 28.3124 29.5239 26.4097C32.0204 24.5069 35.009 23.3577 38.1372 23.0977ZM60.909 7.00142C61.5098 7.25053 62.0234 7.67205 62.3848 8.21278C62.7463 8.75351 62.9395 9.38921 62.9399 10.0396V16.0634H68.9604C69.6113 16.0635 70.2476 16.2566 70.7888 16.6183C71.33 16.98 71.7518 17.4941 72.0008 18.0955C72.2499 18.6969 72.3151 19.3586 72.1882 19.997C72.0612 20.6354 71.7478 21.2219 71.2876 21.6822L59.645 33.3117C59.0278 33.9291 58.1907 34.276 57.3178 34.2762H49.375L43.3545 40.2966C42.7369 40.9138 41.8993 41.2604 41.0261 41.2601C40.153 41.2598 39.3157 40.9126 38.6985 40.295C38.0812 39.6773 37.7347 38.8398 37.735 37.9666C37.7353 37.0934 38.0825 36.2561 38.7001 35.6389L44.7206 29.625V21.679C44.7202 21.2462 44.8052 20.8176 44.9707 20.4177C45.1362 20.0178 45.3789 19.6544 45.685 19.3485L57.3211 7.71242C57.7814 7.2518 58.368 6.93808 59.0067 6.81093C59.6453 6.68378 60.3073 6.74893 60.909 6.99812V7.00142Z" fill="url(#paint0_linear_1_342)"/>
  </g>
  <defs>
    <linearGradient id="paint0_linear_1_342" x1="39.5" y1="6.58337" x2="53.5" y2="45" gradientUnits="userSpaceOnUse">
      <stop stop-color="#0064FF"/>
      <stop offset="1" stop-color="#FF003F"/>
    </linearGradient>
    <clipPath id="clip0_1_342">
      <rect width="79" height="79" fill="white"/>
    </clipPath>
  </defs>
</svg>