<svg xmlns="http://www.w3.org/2000/svg" width="73" height="50" viewBox="0 0 73 50" fill="none">
  <path d="M36.5 15C33.8599 15 31.3279 16.0536 29.4611 17.9289C27.5942 19.8043 26.5455 22.3478 26.5455 25C26.5455 27.6522 27.5942 30.1957 29.4611 32.0711C31.3279 33.9464 33.8599 35 36.5 35C39.1401 35 41.6721 33.9464 43.5389 32.0711C45.4058 30.1957 46.4545 27.6522 46.4545 25C46.4545 22.3478 45.4058 19.8043 43.5389 17.9289C41.6721 16.0536 39.1401 15 36.5 15ZM36.5 41.6667C32.0998 41.6667 27.8799 39.9107 24.7685 36.7851C21.6571 33.6595 19.9091 29.4203 19.9091 25C19.9091 20.5797 21.6571 16.3405 24.7685 13.2149C27.8799 10.0893 32.0998 8.33333 36.5 8.33333C40.9002 8.33333 45.1201 10.0893 48.2315 13.2149C51.3429 16.3405 53.0909 20.5797 53.0909 25C53.0909 29.4203 51.3429 33.6595 48.2315 36.7851C45.1201 39.9107 40.9002 41.6667 36.5 41.6667ZM36.5 0C19.9091 0 5.74045 10.3667 0 25C5.74045 39.6333 19.9091 50 36.5 50C53.0909 50 67.2595 39.6333 73 25C67.2595 10.3667 53.0909 0 36.5 0Z" fill="url(#paint0_linear_1_390)"/>
  <defs>
    <linearGradient id="paint0_linear_1_390" x1="36.5" y1="0" x2="52" y2="31.5" gradientUnits="userSpaceOnUse">
      <stop stop-color="#0064FF"/>
      <stop offset="1" stop-color="#FF003F"/>
    </linearGradient>
  </defs>
</svg>