<svg xmlns="http://www.w3.org/2000/svg" width="60" height="55" viewBox="0 0 60 55" fill="none">
  <path fill-rule="evenodd" clip-rule="evenodd" d="M14.6687 0C13.8605 0.000267455 13.0648 0.202803 12.3524 0.589624C11.6399 0.976445 11.0327 1.53558 10.5847 2.21738L0.517765 17.5173C-0.096519 18.4554 -0.169448 19.6551 0.327028 20.6615C5.83619 31.8281 13.4922 41.7661 22.8452 49.8911L27.7538 54.1581C28.3791 54.7014 29.1756 55 29.9992 55C30.8228 55 31.6192 54.7014 32.2445 54.1581L37.1532 49.8939C46.5075 41.7684 54.1645 31.8295 59.6741 20.6615C60.1706 19.6551 60.0949 18.4554 59.4806 17.5173L49.408 2.21738C48.96 1.53651 48.3531 0.978178 47.6412 0.591885C46.9293 0.205591 46.1343 0.00326584 45.3268 0.00284259L14.6687 0ZM14.0853 4.57975C14.1494 4.48257 14.2362 4.40293 14.338 4.34789C14.4398 4.29285 14.5534 4.2641 14.6687 4.2642H21.2323L15.8608 17.3297C15.7378 17.6286 15.6438 17.939 15.5803 18.2564C13.6049 18.107 11.6319 17.9269 9.6619 17.7163L5.72094 17.2984L14.0853 4.57975ZM5.53862 21.5655C10.5718 30.9241 17.2157 39.2952 25.1564 46.2836L16.391 22.5917C13.9995 22.4252 11.6111 22.2148 9.22713 21.9606L5.53862 21.5655ZM20.9827 22.8561L29.9978 47.2302L39.0157 22.8561C33.0068 23.1329 26.9887 23.1329 20.9799 22.8561H20.9827ZM43.6102 22.5917L34.8447 46.2836C42.7855 39.2952 49.4293 30.9241 54.4625 21.5655L50.774 21.9606C48.3898 22.2136 46.0028 22.424 43.6102 22.5917ZM54.2774 17.2984L50.3336 17.7192C48.3637 17.9298 46.3906 18.1098 44.4152 18.2593C44.3528 17.941 44.2598 17.6296 44.1375 17.3297L38.7632 4.2642H45.3268C45.4422 4.2641 45.5558 4.29285 45.6575 4.34789C45.7593 4.40293 45.8461 4.48257 45.9102 4.57975L54.2774 17.2984ZM40.076 18.535C33.3637 18.8876 26.6402 18.8876 19.9252 18.535L25.7903 4.2642H34.2052L40.0731 18.535H40.076Z" fill="url(#paint0_linear_1_391)"/>
  <defs>
    <linearGradient id="paint0_linear_1_391" x1="30" y1="0" x2="30" y2="55" gradientUnits="userSpaceOnUse">
      <stop stop-color="#1363DF"/>
      <stop offset="1" stop-color="#F50C46"/>
    </linearGradient>
  </defs>
</svg>