<svg xmlns="http://www.w3.org/2000/svg" width="37" height="37" viewBox="0 0 37 37" fill="none">
<path d="M20.5385 7H9.46154C7.74839 7.00183 6.10594 7.68319 4.89456 8.89456C3.68319 10.1059 3.00183 11.7484 3 13.4615V24.5385C3.00183 26.2516 3.68319 27.8941 4.89456 29.1054C6.10594 30.3168 7.74839 30.9982 9.46154 31H20.5385C22.2516 30.9982 23.8941 30.3168 25.1054 29.1054C26.3168 27.8941 26.9982 26.2516 27 24.5385V13.4615C26.9982 11.7484 26.3168 10.1059 25.1054 8.89456C23.8941 7.68319 22.2516 7.00183 20.5385 7ZM15 24.5385C13.9046 24.5385 12.8338 24.2136 11.923 23.6051C11.0122 22.9965 10.3023 22.1315 9.88313 21.1195C9.46394 20.1075 9.35426 18.9939 9.56796 17.9195C9.78166 16.8451 10.3091 15.8583 11.0837 15.0837C11.8583 14.3091 12.8451 13.7817 13.9195 13.568C14.9939 13.3543 16.1075 13.4639 17.1195 13.8831C18.1315 14.3023 18.9965 15.0122 19.6051 15.923C20.2136 16.8338 20.5385 17.9046 20.5385 19C20.5369 20.4684 19.9529 21.8763 18.9146 22.9146C17.8763 23.9529 16.4684 24.5369 15 24.5385ZM21.9231 13.4615C21.6492 13.4615 21.3815 13.3803 21.1538 13.2282C20.9261 13.076 20.7487 12.8598 20.6439 12.6068C20.5391 12.3538 20.5116 12.0754 20.5651 11.8068C20.6185 11.5382 20.7504 11.2915 20.944 11.0979C21.1376 10.9042 21.3844 10.7723 21.653 10.7189C21.9215 10.6655 22.1999 10.6929 22.4529 10.7977C22.706 10.9025 22.9222 11.08 23.0743 11.3077C23.2265 11.5354 23.3077 11.8031 23.3077 12.0769C23.3077 12.4441 23.1618 12.7963 22.9021 13.056C22.6425 13.3157 22.2903 13.4615 21.9231 13.4615ZM18.6923 19C18.6923 19.7303 18.4758 20.4441 18.07 21.0513C17.6643 21.6585 17.0877 22.1318 16.413 22.4112C15.7383 22.6907 14.9959 22.7638 14.2797 22.6214C13.5634 22.4789 12.9055 22.1272 12.3891 21.6109C11.8728 21.0945 11.5211 20.4366 11.3786 19.7203C11.2362 19.0041 11.3093 18.2617 11.5888 17.587C11.8682 16.9123 12.3415 16.3357 12.9487 15.93C13.5559 15.5242 14.2697 15.3077 15 15.3077C15.9793 15.3077 16.9184 15.6967 17.6109 16.3891C18.3033 17.0816 18.6923 18.0207 18.6923 19Z" fill="#F1F1F1"/>
</svg>