<svg xmlns="http://www.w3.org/2000/svg" width="29" height="29" viewBox="0 0 29 29" fill="none">
<path d="M8.38582 6.04165C8.3855 6.68259 8.13058 7.29716 7.67714 7.75014C7.22371 8.20313 6.60889 8.45743 5.96795 8.45711C5.32701 8.45679 4.71245 8.20187 4.25946 7.74843C3.80647 7.29499 3.55217 6.68018 3.55249 6.03924C3.55281 5.3983 3.80773 4.78374 4.26117 4.33075C4.71461 3.87776 5.32943 3.62346 5.97037 3.62378C6.61131 3.6241 7.22587 3.87902 7.67885 4.33246C8.13184 4.7859 8.38614 5.40071 8.38582 6.04165ZM8.45832 10.2467H3.62499V25.375H8.45832V10.2467ZM16.095 10.2467H11.2858V25.375H16.0467V17.4362C16.0467 13.0137 21.8104 12.6029 21.8104 17.4362V25.375H26.5833V15.7929C26.5833 8.33749 18.0525 8.61541 16.0467 12.2767L16.095 10.2467Z" fill="#F1F1F1"/>
</svg>