<svg xmlns="http://www.w3.org/2000/svg" width="64" height="64" viewBox="0 0 64 64" fill="none">
  <path d="M32 26.96C34.7467 26.96 36.9867 29.2 36.9867 32C36.9867 34.6667 34.7467 36.9334 32 36.9334C29.2533 36.9334 27.0133 34.6667 27.0133 32C27.0133 29.2 29.2533 26.96 32 26.96ZM19.6533 53.3334C21.3333 54.3467 25.0133 52.8 29.2533 48.8C27.8667 47.2267 26.5067 45.52 25.2267 43.7334C23.0778 43.5277 20.9414 43.2073 18.8267 42.7734C17.4667 48.48 17.9733 52.4 19.6533 53.3334ZM21.5467 38.0267L20.7733 36.6667C20.48 37.44 20.1867 38.2134 20 38.96C20.72 39.12 21.52 39.2534 22.3467 39.3867L21.5467 38.0267ZM38.9867 36L41.1467 32L38.9867 28C38.1867 26.5867 37.3333 25.3334 36.56 24.08C35.12 24 33.6 24 32 24C30.4 24 28.88 24 27.44 24.08C26.6667 25.3334 25.8133 26.5867 25.0133 28L22.8533 32L25.0133 36C25.8133 37.4134 26.6667 38.6667 27.44 39.92C28.88 40 30.4 40 32 40C33.6 40 35.12 40 36.56 39.92C37.3333 38.6667 38.1867 37.4134 38.9867 36ZM32 18.08C31.4933 18.6667 30.96 19.28 30.4267 20H33.5733C33.04 19.28 32.5067 18.6667 32 18.08ZM32 45.92C32.5067 45.3334 33.04 44.72 33.5733 44H30.4267C30.96 44.72 31.4933 45.3334 32 45.92ZM44.32 10.6667C42.6667 9.65337 38.9867 11.2 34.7467 15.2C36.1333 16.7734 37.4933 18.48 38.7733 20.2667C40.96 20.48 43.12 20.8 45.1733 21.2267C46.5333 15.52 46.0267 11.6 44.32 10.6667ZM42.4533 25.9734L43.2267 27.3334C43.52 26.56 43.8133 25.7867 44 25.04C43.28 24.88 42.48 24.7467 41.6533 24.6134L42.4533 25.9734ZM46.32 7.17337C50.24 9.41337 50.6667 15.3067 49.0133 22.1867C55.7867 24.1867 60.6667 27.4934 60.6667 32C60.6667 36.5067 55.7867 39.8134 49.0133 41.8134C50.6667 48.6934 50.24 54.5867 46.32 56.8267C42.4267 59.0667 37.12 56.5067 32 51.6267C26.88 56.5067 21.5733 59.0667 17.6533 56.8267C13.76 54.5867 13.3333 48.6934 14.9867 41.8134C8.21334 39.8134 3.33334 36.5067 3.33334 32C3.33334 27.4934 8.21334 24.1867 14.9867 22.1867C13.3333 15.3067 13.76 9.41337 17.6533 7.17337C21.5733 4.93337 26.88 7.49337 32 12.3734C37.12 7.49337 42.4267 4.93337 46.32 7.17337ZM45.5467 32C46.4533 34 47.2533 36 47.92 38.0267C53.52 36.3467 56.6667 33.9467 56.6667 32C56.6667 30.0534 53.52 27.6534 47.92 25.9734C47.2533 28 46.4533 30 45.5467 32ZM18.4533 32C17.5467 30 16.7467 28 16.08 25.9734C10.48 27.6534 7.33334 30.0534 7.33334 32C7.33334 33.9467 10.48 36.3467 16.08 38.0267C16.7467 36 17.5467 34 18.4533 32ZM42.4533 38.0267L41.6533 39.3867C42.48 39.2534 43.28 39.12 44 38.96C43.8133 38.2134 43.52 37.44 43.2267 36.6667L42.4533 38.0267ZM34.7467 48.8C38.9867 52.8 42.6667 54.3467 44.32 53.3334C46.0267 52.4 46.5333 48.48 45.1733 42.7734C43.12 43.2 40.96 43.52 38.7733 43.7334C37.4933 45.52 36.1333 47.2267 34.7467 48.8ZM21.5467 25.9734L22.3467 24.6134C21.52 24.7467 20.72 24.88 20 25.04C20.1867 25.7867 20.48 26.56 20.7733 27.3334L21.5467 25.9734ZM29.2533 15.2C25.0133 11.2 21.3333 9.65337 19.6533 10.6667C17.9733 11.6 17.4667 15.52 18.8267 21.2267C20.9414 20.7928 23.0778 20.4724 25.2267 20.2667C26.5067 18.48 27.8667 16.7734 29.2533 15.2Z" fill="white"/>
</svg>