<svg xmlns="http://www.w3.org/2000/svg" width="57" height="57" viewBox="0 0 57 57" fill="none">
  <g clip-path="url(#clip0_1_147)">
    <path d="M40.375 21.375H2.375V42.75C2.375 52.25 7.125 54.625 21.375 54.625C35.625 54.625 40.375 52.25 40.375 42.75V21.375ZM40.375 21.375V28.5C40.375 29.9092 40.7929 31.2867 41.5758 32.4584C42.3587 33.6301 43.4715 34.5434 44.7734 35.0826C46.0753 35.6219 47.5079 35.763 48.89 35.4881C50.2721 35.2132 51.5417 34.5346 52.5381 33.5381C53.5346 32.5417 54.2132 31.2721 54.4881 29.89C54.763 28.5079 54.6219 27.0753 54.0826 25.7734C53.5434 24.4715 52.6301 23.3587 51.4584 22.5758C50.2867 21.7929 48.9092 21.375 47.5 21.375H40.375ZM30.875 14.25V4.75M11.875 14.25V9.5M21.375 14.25V0" stroke="white" stroke-width="5"/>
  </g>
  <defs>
    <clipPath id="clip0_1_147">
      <rect width="57" height="57" fill="white"/>
    </clipPath>
  </defs>
</svg>