<svg width="809" height="118" viewBox="0 0 809 118" fill="none" xmlns="http://www.w3.org/2000/svg">
<path d="M116.585 1.1C120.251 1.1 123.468 1.81667 126.235 3.25C129.035 4.68333 131.185 6.73333 132.685 9.4C134.218 12.0333 134.985 15.1 134.985 18.6C134.985 22.1 134.218 25.1667 132.685 27.8C131.185 30.4 129.035 32.4167 126.235 33.85C123.468 35.2833 120.251 36 116.585 36H104.385V1.1H116.585ZM116.335 30.05C120.001 30.05 122.835 29.05 124.835 27.05C126.835 25.05 127.835 22.2333 127.835 18.6C127.835 14.9667 126.835 12.1333 124.835 10.1C122.835 8.03333 120.001 7 116.335 7H111.385V30.05H116.335ZM147.224 6.75V15.5H158.974V21.05H147.224V30.3H160.474V36H140.224V1.05H160.474V6.75H147.224ZM178.886 36.35C176.452 36.35 174.252 35.9333 172.286 35.1C170.352 34.2667 168.819 33.0667 167.686 31.5C166.552 29.9333 165.969 28.0833 165.936 25.95H173.436C173.536 27.3833 174.036 28.5167 174.936 29.35C175.869 30.1833 177.136 30.6 178.736 30.6C180.369 30.6 181.652 30.2167 182.586 29.45C183.519 28.65 183.986 27.6167 183.986 26.35C183.986 25.3167 183.669 24.4667 183.036 23.8C182.402 23.1333 181.602 22.6167 180.636 22.25C179.702 21.85 178.402 21.4167 176.736 20.95C174.469 20.2833 172.619 19.6333 171.186 19C169.786 18.3333 168.569 17.35 167.536 16.05C166.536 14.7167 166.036 12.95 166.036 10.75C166.036 8.68333 166.552 6.88333 167.586 5.35C168.619 3.81666 170.069 2.65 171.936 1.85C173.802 1.01667 175.936 0.6 178.336 0.6C181.936 0.6 184.852 1.48333 187.086 3.25C189.352 4.98333 190.602 7.41667 190.836 10.55H183.136C183.069 9.35 182.552 8.36667 181.586 7.6C180.652 6.8 179.402 6.4 177.836 6.4C176.469 6.4 175.369 6.75 174.536 7.45C173.736 8.15 173.336 9.16667 173.336 10.5C173.336 11.4333 173.636 12.2167 174.236 12.85C174.869 13.45 175.636 13.95 176.536 14.35C177.469 14.7167 178.769 15.15 180.436 15.65C182.702 16.3167 184.552 16.9833 185.986 17.65C187.419 18.3167 188.652 19.3167 189.686 20.65C190.719 21.9833 191.236 23.7333 191.236 25.9C191.236 27.7667 190.752 29.5 189.786 31.1C188.819 32.7 187.402 33.9833 185.536 34.95C183.669 35.8833 181.452 36.35 178.886 36.35ZM195.604 18.5C195.604 15.0667 196.371 12 197.904 9.3C199.471 6.56666 201.588 4.45 204.254 2.95C206.954 1.41667 209.971 0.649999 213.304 0.649999C217.204 0.649999 220.621 1.65 223.554 3.65C226.488 5.65 228.538 8.41667 229.704 11.95H221.654C220.854 10.2833 219.721 9.03333 218.254 8.2C216.821 7.36666 215.154 6.95 213.254 6.95C211.221 6.95 209.404 7.43333 207.804 8.4C206.238 9.33333 205.004 10.6667 204.104 12.4C203.238 14.1333 202.804 16.1667 202.804 18.5C202.804 20.8 203.238 22.8333 204.104 24.6C205.004 26.3333 206.238 27.6833 207.804 28.65C209.404 29.5833 211.221 30.05 213.254 30.05C215.154 30.05 216.821 29.6333 218.254 28.8C219.721 27.9333 220.854 26.6667 221.654 25H229.704C228.538 28.5667 226.488 31.35 223.554 33.35C220.654 35.3167 217.238 36.3 213.304 36.3C209.971 36.3 206.954 35.55 204.254 34.05C201.588 32.5167 199.471 30.4 197.904 27.7C196.371 25 195.604 21.9333 195.604 18.5ZM242.583 1.1V22.7C242.583 25.0667 243.2 26.8833 244.433 28.15C245.667 29.3833 247.4 30 249.633 30C251.9 30 253.65 29.3833 254.883 28.15C256.117 26.8833 256.733 25.0667 256.733 22.7V1.1H263.783V22.65C263.783 25.6167 263.133 28.1333 261.833 30.2C260.567 32.2333 258.85 33.7667 256.683 34.8C254.55 35.8333 252.167 36.35 249.533 36.35C246.933 36.35 244.567 35.8333 242.433 34.8C240.333 33.7667 238.667 32.2333 237.433 30.2C236.2 28.1333 235.583 25.6167 235.583 22.65V1.1H242.583ZM290.347 18.1C292.313 18.4667 293.93 19.45 295.197 21.05C296.463 22.65 297.097 24.4833 297.097 26.55C297.097 28.4167 296.63 30.0667 295.697 31.5C294.797 32.9 293.48 34 291.747 34.8C290.013 35.6 287.963 36 285.597 36H270.547V1.1H284.947C287.313 1.1 289.347 1.48333 291.047 2.25C292.78 3.01667 294.08 4.08333 294.947 5.45C295.847 6.81666 296.297 8.36666 296.297 10.1C296.297 12.1333 295.747 13.8333 294.647 15.2C293.58 16.5667 292.147 17.5333 290.347 18.1ZM277.547 15.5H283.947C285.613 15.5 286.897 15.1333 287.797 14.4C288.697 13.6333 289.147 12.55 289.147 11.15C289.147 9.75 288.697 8.66666 287.797 7.9C286.897 7.13333 285.613 6.75 283.947 6.75H277.547V15.5ZM284.597 30.3C286.297 30.3 287.613 29.9 288.547 29.1C289.513 28.3 289.997 27.1667 289.997 25.7C289.997 24.2 289.497 23.0333 288.497 22.2C287.497 21.3333 286.147 20.9 284.447 20.9H277.547V30.3H284.597ZM320.676 36L312.976 22.4H309.676V36H302.676V1.1H315.776C318.476 1.1 320.776 1.58333 322.676 2.55C324.576 3.48333 325.992 4.76667 326.926 6.4C327.892 8 328.376 9.8 328.376 11.8C328.376 14.1 327.709 16.1833 326.376 18.05C325.042 19.8833 323.059 21.15 320.426 21.85L328.776 36H320.676ZM309.676 17.15H315.526C317.426 17.15 318.842 16.7 319.776 15.8C320.709 14.8667 321.176 13.5833 321.176 11.95C321.176 10.35 320.709 9.11667 319.776 8.25C318.842 7.35 317.426 6.9 315.526 6.9H309.676V17.15ZM356.107 29.35H342.207L339.907 36H332.557L345.107 1.05H353.257L365.807 36H358.407L356.107 29.35ZM354.207 23.75L349.157 9.15L344.107 23.75H354.207ZM398.612 36.35C395.345 36.35 392.345 35.5833 389.612 34.05C386.879 32.5167 384.712 30.4 383.112 27.7C381.512 24.9667 380.712 21.8833 380.712 18.45C380.712 15.05 381.512 12 383.112 9.3C384.712 6.56666 386.879 4.43333 389.612 2.9C392.345 1.36667 395.345 0.6 398.612 0.6C401.912 0.6 404.912 1.36667 407.612 2.9C410.345 4.43333 412.495 6.56666 414.062 9.3C415.662 12 416.462 15.05 416.462 18.45C416.462 21.8833 415.662 24.9667 414.062 27.7C412.495 30.4 410.345 32.5167 407.612 34.05C404.879 35.5833 401.879 36.35 398.612 36.35ZM398.612 30.1C400.712 30.1 402.562 29.6333 404.162 28.7C405.762 27.7333 407.012 26.3667 407.912 24.6C408.812 22.8333 409.262 20.7833 409.262 18.45C409.262 16.1167 408.812 14.0833 407.912 12.35C407.012 10.5833 405.762 9.23333 404.162 8.3C402.562 7.36667 400.712 6.9 398.612 6.9C396.512 6.9 394.645 7.36667 393.012 8.3C391.412 9.23333 390.162 10.5833 389.262 12.35C388.362 14.0833 387.912 16.1167 387.912 18.45C387.912 20.7833 388.362 22.8333 389.262 24.6C390.162 26.3667 391.412 27.7333 393.012 28.7C394.645 29.6333 396.512 30.1 398.612 30.1ZM455.134 1.1V6.75H440.584V15.7H451.734V21.25H440.584V36H433.584V1.1H455.134ZM466.997 1.1V22.7C466.997 25.0667 467.614 26.8833 468.847 28.15C470.081 29.3833 471.814 30 474.047 30C476.314 30 478.064 29.3833 479.297 28.15C480.531 26.8833 481.147 25.0667 481.147 22.7V1.1H488.197V22.65C488.197 25.6167 487.547 28.1333 486.247 30.2C484.981 32.2333 483.264 33.7667 481.097 34.8C478.964 35.8333 476.581 36.35 473.947 36.35C471.347 36.35 468.981 35.8333 466.847 34.8C464.747 33.7667 463.081 32.2333 461.847 30.2C460.614 28.1333 459.997 25.6167 459.997 22.65V1.1H466.997ZM518.711 1.1V6.75H509.411V36H502.411V6.75H493.111V1.1H518.711ZM530.718 1.1V22.7C530.718 25.0667 531.335 26.8833 532.568 28.15C533.801 29.3833 535.535 30 537.768 30C540.035 30 541.785 29.3833 543.018 28.15C544.251 26.8833 544.868 25.0667 544.868 22.7V1.1H551.918V22.65C551.918 25.6167 551.268 28.1333 549.968 30.2C548.701 32.2333 546.985 33.7667 544.818 34.8C542.685 35.8333 540.301 36.35 537.668 36.35C535.068 36.35 532.701 35.8333 530.568 34.8C528.468 33.7667 526.801 32.2333 525.568 30.2C524.335 28.1333 523.718 25.6167 523.718 22.65V1.1H530.718ZM576.681 36L568.981 22.4H565.681V36H558.681V1.1H571.781C574.481 1.1 576.781 1.58333 578.681 2.55C580.581 3.48333 581.998 4.76667 582.931 6.4C583.898 8 584.381 9.8 584.381 11.8C584.381 14.1 583.715 16.1833 582.381 18.05C581.048 19.8833 579.065 21.15 576.431 21.85L584.781 36H576.681ZM565.681 17.15H571.531C573.431 17.15 574.848 16.7 575.781 15.8C576.715 14.8667 577.181 13.5833 577.181 11.95C577.181 10.35 576.715 9.11667 575.781 8.25C574.848 7.35 573.431 6.9 571.531 6.9H565.681V17.15ZM606.913 36.35C603.646 36.35 600.646 35.5833 597.913 34.05C595.179 32.5167 593.013 30.4 591.413 27.7C589.813 24.9667 589.013 21.8833 589.013 18.45C589.013 15.05 589.813 12 591.413 9.3C593.013 6.56666 595.179 4.43333 597.913 2.9C600.646 1.36667 603.646 0.6 606.913 0.6C610.213 0.6 613.213 1.36667 615.913 2.9C618.646 4.43333 620.796 6.56666 622.363 9.3C623.963 12 624.763 15.05 624.763 18.45C624.763 21.8833 623.963 24.9667 622.363 27.7C620.796 30.4 618.646 32.5167 615.913 34.05C613.179 35.5833 610.179 36.35 606.913 36.35ZM606.913 30.1C609.013 30.1 610.863 29.6333 612.463 28.7C614.063 27.7333 615.313 26.3667 616.213 24.6C617.113 22.8333 617.563 20.7833 617.563 18.45C617.563 16.1167 617.113 14.0833 616.213 12.35C615.313 10.5833 614.063 9.23333 612.463 8.3C610.863 7.36667 609.013 6.9 606.913 6.9C604.813 6.9 602.946 7.36667 601.313 8.3C599.713 9.23333 598.463 10.5833 597.563 12.35C596.663 14.0833 596.213 16.1167 596.213 18.45C596.213 20.7833 596.663 22.8333 597.563 24.6C598.463 26.3667 599.713 27.7333 601.313 28.7C602.946 29.6333 604.813 30.1 606.913 30.1ZM654.085 1.1C657.751 1.1 660.968 1.81667 663.735 3.25C666.535 4.68333 668.685 6.73333 670.185 9.4C671.718 12.0333 672.485 15.1 672.485 18.6C672.485 22.1 671.718 25.1667 670.185 27.8C668.685 30.4 666.535 32.4167 663.735 33.85C660.968 35.2833 657.751 36 654.085 36H641.885V1.1H654.085ZM653.835 30.05C657.501 30.05 660.335 29.05 662.335 27.05C664.335 25.05 665.335 22.2333 665.335 18.6C665.335 14.9667 664.335 12.1333 662.335 10.1C660.335 8.03333 657.501 7 653.835 7H648.885V30.05H653.835ZM699.124 29.35H685.224L682.924 36H675.574L688.124 1.05H696.274L708.824 36H701.424L699.124 29.35ZM697.224 23.75L692.174 9.15L687.124 23.75H697.224Z" fill="white"/>
<path d="M26.1814 76.1V81.75H16.8814V111H9.88145V81.75H0.581445V76.1H26.1814ZM38.2889 81.75V90.5H50.0389V96.05H38.2889V105.3H51.5389V111H31.2889V76.05H51.5389V81.75H38.2889ZM56.2002 93.5C56.2002 90.0667 56.9669 87 58.5002 84.3C60.0669 81.5667 62.1835 79.45 64.8502 77.95C67.5502 76.4167 70.5669 75.65 73.9002 75.65C77.8002 75.65 81.2169 76.65 84.1502 78.65C87.0835 80.65 89.1335 83.4167 90.3002 86.95H82.2502C81.4502 85.2833 80.3169 84.0333 78.8502 83.2C77.4169 82.3667 75.7502 81.95 73.8502 81.95C71.8169 81.95 70.0002 82.4333 68.4002 83.4C66.8335 84.3333 65.6002 85.6667 64.7002 87.4C63.8335 89.1333 63.4002 91.1667 63.4002 93.5C63.4002 95.8 63.8335 97.8333 64.7002 99.6C65.6002 101.333 66.8335 102.683 68.4002 103.65C70.0002 104.583 71.8169 105.05 73.8502 105.05C75.7502 105.05 77.4169 104.633 78.8502 103.8C80.3169 102.933 81.4502 101.667 82.2502 100H90.3002C89.1335 103.567 87.0835 106.35 84.1502 108.35C81.2502 110.317 77.8335 111.3 73.9002 111.3C70.5669 111.3 67.5502 110.55 64.8502 109.05C62.1835 107.517 60.0669 105.4 58.5002 102.7C56.9669 100 56.2002 96.9333 56.2002 93.5ZM126.129 111H119.129L103.279 87.05V111H96.2791V76.05H103.279L119.129 100.05V76.05H126.129V111ZM149.247 111.35C145.98 111.35 142.98 110.583 140.247 109.05C137.513 107.517 135.347 105.4 133.747 102.7C132.147 99.9667 131.347 96.8833 131.347 93.45C131.347 90.05 132.147 87 133.747 84.3C135.347 81.5667 137.513 79.4333 140.247 77.9C142.98 76.3667 145.98 75.6 149.247 75.6C152.547 75.6 155.547 76.3667 158.247 77.9C160.98 79.4333 163.13 81.5667 164.697 84.3C166.297 87 167.097 90.05 167.097 93.45C167.097 96.8833 166.297 99.9667 164.697 102.7C163.13 105.4 160.98 107.517 158.247 109.05C155.513 110.583 152.513 111.35 149.247 111.35ZM149.247 105.1C151.347 105.1 153.197 104.633 154.797 103.7C156.397 102.733 157.647 101.367 158.547 99.6C159.447 97.8333 159.897 95.7833 159.897 93.45C159.897 91.1167 159.447 89.0833 158.547 87.35C157.647 85.5833 156.397 84.2333 154.797 83.3C153.197 82.3667 151.347 81.9 149.247 81.9C147.147 81.9 145.28 82.3667 143.647 83.3C142.047 84.2333 140.797 85.5833 139.897 87.35C138.997 89.0833 138.547 91.1167 138.547 93.45C138.547 95.7833 138.997 97.8333 139.897 99.6C140.797 101.367 142.047 102.733 143.647 103.7C145.28 104.633 147.147 105.1 149.247 105.1ZM179.304 105.45H190.804V111H172.304V76.1H179.304V105.45ZM211.454 111.35C208.187 111.35 205.187 110.583 202.454 109.05C199.72 107.517 197.554 105.4 195.954 102.7C194.354 99.9667 193.554 96.8833 193.554 93.45C193.554 90.05 194.354 87 195.954 84.3C197.554 81.5667 199.72 79.4333 202.454 77.9C205.187 76.3667 208.187 75.6 211.454 75.6C214.754 75.6 217.754 76.3667 220.454 77.9C223.187 79.4333 225.337 81.5667 226.904 84.3C228.504 87 229.304 90.05 229.304 93.45C229.304 96.8833 228.504 99.9667 226.904 102.7C225.337 105.4 223.187 107.517 220.454 109.05C217.72 110.583 214.72 111.35 211.454 111.35ZM211.454 105.1C213.554 105.1 215.404 104.633 217.004 103.7C218.604 102.733 219.854 101.367 220.754 99.6C221.654 97.8333 222.104 95.7833 222.104 93.45C222.104 91.1167 221.654 89.0833 220.754 87.35C219.854 85.5833 218.604 84.2333 217.004 83.3C215.404 82.3667 213.554 81.9 211.454 81.9C209.354 81.9 207.487 82.3667 205.854 83.3C204.254 84.2333 203.004 85.5833 202.104 87.35C201.204 89.0833 200.754 91.1167 200.754 93.45C200.754 95.7833 201.204 97.8333 202.104 99.6C203.004 101.367 204.254 102.733 205.854 103.7C207.487 104.633 209.354 105.1 211.454 105.1ZM258.812 86.6C258.012 85.1333 256.912 84.0167 255.512 83.25C254.112 82.4833 252.478 82.1 250.612 82.1C248.545 82.1 246.712 82.5667 245.112 83.5C243.512 84.4333 242.262 85.7667 241.362 87.5C240.462 89.2333 240.012 91.2333 240.012 93.5C240.012 95.8333 240.462 97.8667 241.362 99.6C242.295 101.333 243.578 102.667 245.212 103.6C246.845 104.533 248.745 105 250.912 105C253.578 105 255.762 104.3 257.462 102.9C259.162 101.467 260.278 99.4833 260.812 96.95H248.812V91.6H267.712V97.7C267.245 100.133 266.245 102.383 264.712 104.45C263.178 106.517 261.195 108.183 258.762 109.45C256.362 110.683 253.662 111.3 250.662 111.3C247.295 111.3 244.245 110.55 241.512 109.05C238.812 107.517 236.678 105.4 235.112 102.7C233.578 100 232.812 96.9333 232.812 93.5C232.812 90.0667 233.578 87 235.112 84.3C236.678 81.5667 238.812 79.45 241.512 77.95C244.245 76.4167 247.278 75.65 250.612 75.65C254.545 75.65 257.962 76.6167 260.862 78.55C263.762 80.45 265.762 83.1333 266.862 86.6H258.812ZM279.89 76.1V111H272.89V76.1H279.89ZM308.206 104.35H294.306L292.006 111H284.656L297.206 76.05H305.356L317.906 111H310.506L308.206 104.35ZM306.306 98.75L301.256 84.15L296.206 98.75H306.306ZM346.712 76.1C350.378 76.1 353.595 76.8167 356.362 78.25C359.162 79.6833 361.312 81.7333 362.812 84.4C364.345 87.0333 365.112 90.1 365.112 93.6C365.112 97.1 364.345 100.167 362.812 102.8C361.312 105.4 359.162 107.417 356.362 108.85C353.595 110.283 350.378 111 346.712 111H334.512V76.1H346.712ZM346.462 105.05C350.128 105.05 352.962 104.05 354.962 102.05C356.962 100.05 357.962 97.2333 357.962 93.6C357.962 89.9667 356.962 87.1333 354.962 85.1C352.962 83.0333 350.128 82 346.462 82H341.512V105.05H346.462ZM377.351 81.75V90.5H389.101V96.05H377.351V105.3H390.601V111H370.351V76.05H390.601V81.75H377.351ZM420.927 111.35C418.493 111.35 416.293 110.933 414.327 110.1C412.393 109.267 410.86 108.067 409.727 106.5C408.593 104.933 408.01 103.083 407.977 100.95H415.477C415.577 102.383 416.077 103.517 416.977 104.35C417.91 105.183 419.177 105.6 420.777 105.6C422.41 105.6 423.693 105.217 424.627 104.45C425.56 103.65 426.027 102.617 426.027 101.35C426.027 100.317 425.71 99.4667 425.077 98.8C424.443 98.1333 423.643 97.6167 422.677 97.25C421.743 96.85 420.443 96.4167 418.777 95.95C416.51 95.2833 414.66 94.6333 413.227 94C411.827 93.3333 410.61 92.35 409.577 91.05C408.577 89.7167 408.077 87.95 408.077 85.75C408.077 83.6833 408.593 81.8833 409.627 80.35C410.66 78.8167 412.11 77.65 413.977 76.85C415.843 76.0167 417.977 75.6 420.377 75.6C423.977 75.6 426.893 76.4833 429.127 78.25C431.393 79.9833 432.643 82.4167 432.877 85.55H425.177C425.11 84.35 424.593 83.3667 423.627 82.6C422.693 81.8 421.443 81.4 419.877 81.4C418.51 81.4 417.41 81.75 416.577 82.45C415.777 83.15 415.377 84.1667 415.377 85.5C415.377 86.4333 415.677 87.2167 416.277 87.85C416.91 88.45 417.677 88.95 418.577 89.35C419.51 89.7167 420.81 90.15 422.477 90.65C424.743 91.3167 426.593 91.9833 428.027 92.65C429.46 93.3167 430.693 94.3167 431.727 95.65C432.76 96.9833 433.277 98.7333 433.277 100.9C433.277 102.767 432.793 104.5 431.827 106.1C430.86 107.7 429.443 108.983 427.577 109.95C425.71 110.883 423.493 111.35 420.927 111.35ZM455.546 111.35C452.279 111.35 449.279 110.583 446.546 109.05C443.812 107.517 441.646 105.4 440.046 102.7C438.446 99.9667 437.646 96.8833 437.646 93.45C437.646 90.05 438.446 87 440.046 84.3C441.646 81.5667 443.812 79.4333 446.546 77.9C449.279 76.3667 452.279 75.6 455.546 75.6C458.846 75.6 461.846 76.3667 464.546 77.9C467.279 79.4333 469.429 81.5667 470.996 84.3C472.596 87 473.396 90.05 473.396 93.45C473.396 96.8833 472.596 99.9667 470.996 102.7C469.429 105.4 467.279 107.517 464.546 109.05C461.812 110.583 458.812 111.35 455.546 111.35ZM455.546 105.1C457.646 105.1 459.496 104.633 461.096 103.7C462.696 102.733 463.946 101.367 464.846 99.6C465.746 97.8333 466.196 95.7833 466.196 93.45C466.196 91.1167 465.746 89.0833 464.846 87.35C463.946 85.5833 462.696 84.2333 461.096 83.3C459.496 82.3667 457.646 81.9 455.546 81.9C453.446 81.9 451.579 82.3667 449.946 83.3C448.346 84.2333 447.096 85.5833 446.196 87.35C445.296 89.0833 444.846 91.1167 444.846 93.45C444.846 95.7833 445.296 97.8333 446.196 99.6C447.096 101.367 448.346 102.733 449.946 103.7C451.579 104.633 453.446 105.1 455.546 105.1ZM500.153 76.1V81.75H485.603V90.7H496.753V96.25H485.603V111H478.603V76.1H500.153ZM528.867 76.1V81.75H519.567V111H512.567V81.75H503.267V76.1H528.867ZM580.624 76.1L570.874 111H562.624L556.074 86.15L549.224 111L541.024 111.05L531.624 76.1H539.124L545.274 103.2L552.374 76.1H560.174L566.874 103.05L573.074 76.1H580.624ZM606.595 104.35H592.695L590.395 111H583.045L595.595 76.05H603.745L616.295 111H608.895L606.595 104.35ZM604.695 98.75L599.645 84.15L594.595 98.75H604.695ZM638.986 111L631.286 97.4H627.986V111H620.986V76.1H634.086C636.786 76.1 639.086 76.5833 640.986 77.55C642.886 78.4833 644.303 79.7667 645.236 81.4C646.203 83 646.686 84.8 646.686 86.8C646.686 89.1 646.019 91.1833 644.686 93.05C643.353 94.8833 641.369 96.15 638.736 96.85L647.086 111H638.986ZM627.986 92.15H633.836C635.736 92.15 637.153 91.7 638.086 90.8C639.019 89.8667 639.486 88.5833 639.486 86.95C639.486 85.35 639.019 84.1167 638.086 83.25C637.153 82.35 635.736 81.9 633.836 81.9H627.986V92.15ZM660.017 81.75V90.5H671.767V96.05H660.017V105.3H673.267V111H653.017V76.05H673.267V81.75H660.017ZM712.943 104.35H699.043L696.743 111H689.393L701.943 76.05H710.093L722.643 111H715.243L712.943 104.35ZM711.043 98.75L705.993 84.15L700.943 98.75H711.043ZM753.334 117.15L748.034 110.8C746.567 111.167 745.067 111.35 743.534 111.35C740.267 111.35 737.267 110.583 734.534 109.05C731.8 107.517 729.634 105.4 728.034 102.7C726.434 99.9667 725.634 96.8833 725.634 93.45C725.634 90.05 726.434 87 728.034 84.3C729.634 81.5667 731.8 79.4333 734.534 77.9C737.267 76.3667 740.267 75.6 743.534 75.6C746.834 75.6 749.834 76.3667 752.534 77.9C755.267 79.4333 757.417 81.5667 758.984 84.3C760.584 87 761.384 90.05 761.384 93.45C761.384 96.55 760.717 99.3833 759.384 101.95C758.084 104.483 756.3 106.55 754.034 108.15L762.034 117.15H753.334ZM732.834 93.45C732.834 95.7833 733.284 97.8333 734.184 99.6C735.084 101.367 736.334 102.733 737.934 103.7C739.567 104.633 741.434 105.1 743.534 105.1C745.634 105.1 747.484 104.633 749.084 103.7C750.684 102.733 751.934 101.367 752.834 99.6C753.734 97.8333 754.184 95.7833 754.184 93.45C754.184 91.1167 753.734 89.0833 752.834 87.35C751.934 85.5833 750.684 84.2333 749.084 83.3C747.484 82.3667 745.634 81.9 743.534 81.9C741.434 81.9 739.567 82.3667 737.934 83.3C736.334 84.2333 735.084 85.5833 734.184 87.35C733.284 89.0833 732.834 91.1167 732.834 93.45ZM773.589 76.1V97.7C773.589 100.067 774.206 101.883 775.439 103.15C776.673 104.383 778.406 105 780.639 105C782.906 105 784.656 104.383 785.889 103.15C787.123 101.883 787.739 100.067 787.739 97.7V76.1H794.789V97.65C794.789 100.617 794.139 103.133 792.839 105.2C791.573 107.233 789.856 108.767 787.689 109.8C785.556 110.833 783.173 111.35 780.539 111.35C777.939 111.35 775.573 110.833 773.439 109.8C771.339 108.767 769.673 107.233 768.439 105.2C767.206 103.133 766.589 100.617 766.589 97.65V76.1H773.589ZM808.553 76.1V111H801.553V76.1H808.553Z" fill="url(#paint0_linear_1_115)"/>
<defs>
<linearGradient id="paint0_linear_1_115" x1="65" y1="111" x2="822.5" y2="190.5" gradientUnits="userSpaceOnUse">
<stop stop-color="#1363DF"/>
<stop offset="1" stop-color="#F50C46"/>
</linearGradient>
</defs>
</svg>
